<svg width="100" height="93" viewBox="0 0 100 93" fill="none" xmlns="http://www.w3.org/2000/svg">
<g clip-path="url(#clip0_25_28)">
<path fill-rule="evenodd" clip-rule="evenodd" d="M66.2607 53.134L52.3006 45.2992L35.3373 74.359C35.1989 74.5963 36.4886 76.2394 42.7564 80.9117C49.0242 85.5841 53.82 80.1046 55.4345 76.7807L59.5655 63.8177L58.2835 71.0827C60.3727 72.0798 64.8932 74.2736 66.2607 75.0713C67.6282 75.869 68.5399 75.4038 68.8248 75.0713L76.3747 71.0827L75.5419 64.5607C75.7499 66.0251 76.8097 70.224 79.651 76.7807C82.614 83.6183 87.7231 83.5234 89.9074 82.6211C91.7117 81.1491 95.8333 77.9203 97.8846 76.7807C99.9359 75.6411 99.7838 74.5015 99.4516 74.0741L82.2151 45.2992C78.2265 47.5784 69.9644 52.3362 68.8248 53.134C67.6852 53.9317 66.6405 53.4664 66.2607 53.134ZM53.0128 57.8348C53.0128 59.0935 51.9923 60.114 50.7336 60.114C49.4747 60.114 48.4544 59.0935 48.4544 57.8348C48.4544 56.5761 49.4747 55.5556 50.7336 55.5556C51.9923 55.5556 53.0128 56.5761 53.0128 57.8348ZM54.4373 56.1254C55.696 56.1254 56.7165 55.1049 56.7165 53.8462C56.7165 52.5875 55.696 51.567 54.4373 51.567C53.1784 51.567 52.1581 52.5875 52.1581 53.8462C52.1581 55.1049 53.1784 56.1254 54.4373 56.1254ZM60.4202 57.8348C60.4202 59.0935 59.3997 60.114 58.141 60.114C56.8821 60.114 55.8618 59.0935 55.8618 57.8348C55.8618 56.5761 56.8821 55.5556 58.141 55.5556C59.3997 55.5556 60.4202 56.5761 60.4202 57.8348ZM54.4373 64.1026C55.696 64.1026 56.7165 63.0821 56.7165 61.8234C56.7165 60.5647 55.696 59.5442 54.4373 59.5442C53.1784 59.5442 52.1581 60.5647 52.1581 61.8234C52.1581 63.0821 53.1784 64.1026 54.4373 64.1026ZM78.9388 57.8348C78.9388 59.0935 77.9182 60.114 76.6596 60.114C75.4006 60.114 74.3804 59.0935 74.3804 57.8348C74.3804 56.5761 75.4006 55.5556 76.6596 55.5556C77.9182 55.5556 78.9388 56.5761 78.9388 57.8348ZM80.3633 56.1254C81.6219 56.1254 82.6425 55.1049 82.6425 53.8462C82.6425 52.5875 81.6219 51.567 80.3633 51.567C79.1043 51.567 78.0841 52.5875 78.0841 53.8462C78.0841 55.1049 79.1043 56.1254 80.3633 56.1254ZM86.3462 57.8348C86.3462 59.0935 85.3257 60.114 84.067 60.114C82.808 60.114 81.7878 59.0935 81.7878 57.8348C81.7878 56.5761 82.808 55.5556 84.067 55.5556C85.3257 55.5556 86.3462 56.5761 86.3462 57.8348ZM80.3633 64.1026C81.6219 64.1026 82.6425 63.0821 82.6425 61.8234C82.6425 60.5647 81.6219 59.5442 80.3633 59.5442C79.1043 59.5442 78.0841 60.5647 78.0841 61.8234C78.0841 63.0821 79.1043 64.1026 80.3633 64.1026ZM65.5484 69.2308C65.5484 70.0174 64.9106 70.6553 64.1239 70.6553C63.337 70.6553 62.6994 70.0174 62.6994 69.2308C62.6994 68.4442 63.337 67.8063 64.1239 67.8063C64.9106 67.8063 65.5484 68.4442 65.5484 69.2308ZM70.9615 70.6553C71.7482 70.6553 72.386 70.0174 72.386 69.2308C72.386 68.4442 71.7482 67.8063 70.9615 67.8063C70.1747 67.8063 69.537 68.4442 69.537 69.2308C69.537 70.0174 70.1747 70.6553 70.9615 70.6553Z" fill="#143B5A"/>
<path d="M52.3006 45.2992L52.3704 45.175L52.2482 45.1063L52.1775 45.2274L52.3006 45.2992ZM66.2607 53.134L66.3545 53.0268L66.3433 53.0169L66.3305 53.0097L66.2607 53.134ZM55.4345 76.7807L55.5627 76.8428L55.567 76.8337L55.5701 76.824L55.4345 76.7807ZM59.5656 63.8177L59.7057 63.8425L59.4297 63.7744L59.5656 63.8177ZM58.2835 71.0827L58.1431 71.0579L58.1243 71.1644L58.222 71.2112L58.2835 71.0827ZM68.8248 75.0713L68.7582 74.9454L68.7342 74.9579L68.7166 74.9787L68.8248 75.0713ZM76.3747 71.0827L76.4411 71.2086L76.5285 71.1624L76.516 71.0647L76.3747 71.0827ZM75.5419 64.5607L75.6829 64.5405L75.4006 64.5787L75.5419 64.5607ZM89.9074 82.6211L89.9619 82.7528L89.9812 82.7448L89.9975 82.7314L89.9074 82.6211ZM99.4516 74.0741L99.3294 74.1473L99.3337 74.1548L99.3391 74.1616L99.4516 74.0741ZM82.2151 45.2992L82.3374 45.226L82.2656 45.1063L82.1445 45.1756L82.2151 45.2992ZM52.2308 45.4234L66.1909 53.2582L66.3305 53.0097L52.3704 45.175L52.2308 45.4234ZM35.4604 74.4308L52.4237 45.371L52.1775 45.2274L35.2143 74.2872L35.4604 74.4308ZM42.8416 80.7975C39.7094 78.4627 37.8251 76.8875 36.7422 75.8684C36.2 75.3585 35.8624 74.9909 35.6698 74.7394C35.573 74.6129 35.5171 74.5211 35.4895 74.459C35.4755 74.428 35.4713 74.4097 35.4704 74.4023C35.4693 74.3941 35.4733 74.4089 35.4604 74.4308L35.2143 74.2872C35.1844 74.3388 35.1821 74.3944 35.1878 74.4385C35.1935 74.4835 35.2089 74.5294 35.2291 74.5753C35.2701 74.6664 35.3411 74.7787 35.4436 74.9126C35.6499 75.1818 36.0003 75.5616 36.5468 76.0761C37.6411 77.1058 39.5354 78.6884 42.6713 81.026L42.8416 80.7975ZM55.3063 76.7186C54.5069 78.3644 52.9217 80.5377 50.7718 81.72C49.6995 82.3097 48.4886 82.6519 47.1641 82.5627C45.8396 82.4736 44.3903 81.9522 42.8416 80.7975L42.6713 81.026C44.2564 82.2075 45.757 82.7533 47.1451 82.8471C48.5328 82.9405 49.7972 82.581 50.9092 81.9696C53.1277 80.7493 54.7476 78.5208 55.5627 76.8428L55.3063 76.7186ZM59.4297 63.7744L55.2986 76.7374L55.5701 76.824L59.7012 63.861L59.4297 63.7744ZM58.4237 71.1075L59.7057 63.8425L59.4251 63.7929L58.1431 71.0579L58.4237 71.1075ZM66.3325 74.9482C64.9584 74.1468 60.4314 71.9499 58.3448 70.9542L58.222 71.2112C60.314 72.2097 64.8277 74.4003 66.1889 75.1944L66.3325 74.9482ZM68.7166 74.9787C68.4818 75.2525 67.6479 75.7157 66.3325 74.9482L66.1889 75.1944C67.6086 76.0223 68.5978 75.5548 68.9328 75.1639L68.7166 74.9787ZM76.308 70.9568L68.7582 74.9454L68.8912 75.1972L76.4411 71.2086L76.308 70.9568ZM75.4006 64.5787L76.2334 71.1006L76.516 71.0647L75.6832 64.5425L75.4006 64.5787ZM79.7818 76.724C76.9431 70.173 75.8884 65.9872 75.6829 64.5405L75.4009 64.5807C75.6114 66.0627 76.6764 70.2747 79.5203 76.8374L79.7818 76.724ZM89.853 82.4895C88.7906 82.9283 87.0049 83.1741 85.1211 82.4699C83.2422 81.7673 81.2505 80.1132 79.7818 76.724L79.5203 76.8374C81.0146 80.2858 83.0587 82.0029 85.0214 82.7368C86.9789 83.4687 88.8399 83.2163 89.9619 82.7528L89.853 82.4895ZM97.8154 76.6562C95.751 77.8032 91.6194 81.0408 89.8174 82.5109L89.9975 82.7314C91.8043 81.2576 95.9157 78.0374 97.9539 76.9052L97.8154 76.6562ZM99.3391 74.1616C99.4752 74.3365 99.5881 74.6767 99.4282 75.1112C99.2676 75.5479 98.8245 76.0955 97.8154 76.6562L97.9539 76.9052C98.996 76.3263 99.5026 75.7342 99.6958 75.2095C99.8895 74.6824 99.7601 74.2391 99.5638 73.9867L99.3391 74.1616ZM82.0929 45.3724L99.3294 74.1473L99.5738 74.0009L82.3374 45.226L82.0929 45.3724ZM68.9066 53.2508C69.4698 52.8562 71.8129 51.4716 74.5231 49.8952C77.2294 48.3214 80.2918 46.5625 82.2858 45.4228L82.1445 45.1756C80.1499 46.3152 77.0869 48.0747 74.3798 49.6491C71.677 51.2209 69.3191 52.614 68.7431 53.0171L68.9066 53.2508ZM66.167 53.2411C66.5821 53.6043 67.6992 54.0958 68.9066 53.2508L68.7431 53.0171C67.6713 53.7676 66.6992 53.3283 66.3545 53.0268L66.167 53.2411ZM50.7337 60.2565C52.071 60.2565 53.1553 59.1721 53.1553 57.8348H52.8704C52.8704 59.0149 51.9137 59.9716 50.7337 59.9716V60.2565ZM48.312 57.8348C48.312 59.1721 49.396 60.2565 50.7337 60.2565V59.9716C49.5536 59.9716 48.5969 59.0149 48.5969 57.8348H48.312ZM50.7337 55.4132C49.396 55.4132 48.312 56.4975 48.312 57.8348H48.5969C48.5969 56.6548 49.5536 55.6981 50.7337 55.6981V55.4132ZM53.1553 57.8348C53.1553 56.4975 52.071 55.4132 50.7337 55.4132V55.6981C51.9137 55.6981 52.8704 56.6548 52.8704 57.8348H53.1553ZM56.5741 53.8462C56.5741 55.0263 55.6174 55.983 54.4374 55.983V56.2679C55.7747 56.2679 56.859 55.1835 56.859 53.8462H56.5741ZM54.4374 51.7095C55.6174 51.7095 56.5741 52.6662 56.5741 53.8462H56.859C56.859 52.5089 55.7747 51.4246 54.4374 51.4246V51.7095ZM52.3006 53.8462C52.3006 52.6662 53.2573 51.7095 54.4374 51.7095V51.4246C53.0998 51.4246 52.0157 52.5089 52.0157 53.8462H52.3006ZM54.4374 55.983C53.2573 55.983 52.3006 55.0263 52.3006 53.8462H52.0157C52.0157 55.1835 53.0998 56.2679 54.4374 56.2679V55.983ZM58.1411 60.2565C59.4784 60.2565 60.5627 59.1721 60.5627 57.8348H60.2778C60.2778 59.0149 59.3211 59.9716 58.1411 59.9716V60.2565ZM55.7194 57.8348C55.7194 59.1721 56.8035 60.2565 58.1411 60.2565V59.9716C56.961 59.9716 56.0043 59.0149 56.0043 57.8348H55.7194ZM58.1411 55.4132C56.8035 55.4132 55.7194 56.4975 55.7194 57.8348H56.0043C56.0043 56.6548 56.961 55.6981 58.1411 55.6981V55.4132ZM60.5627 57.8348C60.5627 56.4975 59.4784 55.4132 58.1411 55.4132V55.6981C59.3211 55.6981 60.2778 56.6548 60.2778 57.8348H60.5627ZM56.5741 61.8234C56.5741 63.0035 55.6174 63.9602 54.4374 63.9602V64.2451C55.7747 64.2451 56.859 63.1607 56.859 61.8234H56.5741ZM54.4374 59.6867C55.6174 59.6867 56.5741 60.6434 56.5741 61.8234H56.859C56.859 60.4861 55.7747 59.4018 54.4374 59.4018V59.6867ZM52.3006 61.8234C52.3006 60.6434 53.2573 59.6867 54.4374 59.6867V59.4018C53.0998 59.4018 52.0157 60.4861 52.0157 61.8234H52.3006ZM54.4374 63.9602C53.2573 63.9602 52.3006 63.0035 52.3006 61.8234H52.0157C52.0157 63.1607 53.0998 64.2451 54.4374 64.2451V63.9602ZM76.6596 60.2565C77.9969 60.2565 79.0812 59.1721 79.0812 57.8348H78.7963C78.7963 59.0149 77.8396 59.9716 76.6596 59.9716V60.2565ZM74.2379 57.8348C74.2379 59.1721 75.322 60.2565 76.6596 60.2565V59.9716C75.4795 59.9716 74.5228 59.0149 74.5228 57.8348H74.2379ZM76.6596 55.4132C75.322 55.4132 74.2379 56.4975 74.2379 57.8348H74.5228C74.5228 56.6548 75.4795 55.6981 76.6596 55.6981V55.4132ZM79.0812 57.8348C79.0812 56.4975 77.9969 55.4132 76.6596 55.4132V55.6981C77.8396 55.6981 78.7963 56.6548 78.7963 57.8348H79.0812ZM82.5 53.8462C82.5 55.0263 81.5433 55.983 80.3633 55.983V56.2679C81.7006 56.2679 82.7849 55.1835 82.7849 53.8462H82.5ZM80.3633 51.7095C81.5433 51.7095 82.5 52.6662 82.5 53.8462H82.7849C82.7849 52.5089 81.7006 51.4246 80.3633 51.4246V51.7095ZM78.2265 53.8462C78.2265 52.6662 79.1832 51.7095 80.3633 51.7095V51.4246C79.0257 51.4246 77.9416 52.5089 77.9416 53.8462H78.2265ZM80.3633 55.983C79.1832 55.983 78.2265 55.0263 78.2265 53.8462H77.9416C77.9416 55.1835 79.0257 56.2679 80.3633 56.2679V55.983ZM84.067 60.2565C85.4043 60.2565 86.4886 59.1721 86.4886 57.8348H86.2037C86.2037 59.0149 85.247 59.9716 84.067 59.9716V60.2565ZM81.6453 57.8348C81.6453 59.1721 82.7294 60.2565 84.067 60.2565V59.9716C82.8869 59.9716 81.9302 59.0149 81.9302 57.8348H81.6453ZM84.067 55.4132C82.7294 55.4132 81.6453 56.4975 81.6453 57.8348H81.9302C81.9302 56.6548 82.8869 55.6981 84.067 55.6981V55.4132ZM86.4886 57.8348C86.4886 56.4975 85.4043 55.4132 84.067 55.4132V55.6981C85.247 55.6981 86.2037 56.6548 86.2037 57.8348H86.4886ZM82.5 61.8234C82.5 63.0035 81.5433 63.9602 80.3633 63.9602V64.2451C81.7006 64.2451 82.7849 63.1607 82.7849 61.8234H82.5ZM80.3633 59.6867C81.5433 59.6867 82.5 60.6434 82.5 61.8234H82.7849C82.7849 60.4861 81.7006 59.4018 80.3633 59.4018V59.6867ZM78.2265 61.8234C78.2265 60.6434 79.1832 59.6867 80.3633 59.6867V59.4018C79.0257 59.4018 77.9416 60.4861 77.9416 61.8234H78.2265ZM80.3633 63.9602C79.1832 63.9602 78.2265 63.0035 78.2265 61.8234H77.9416C77.9416 63.1607 79.0257 64.2451 80.3633 64.2451V63.9602ZM64.124 70.7978C64.9892 70.7978 65.6909 70.0964 65.6909 69.2308H65.406C65.406 69.9388 64.8319 70.5129 64.124 70.5129V70.7978ZM62.557 69.2308C62.557 70.0964 63.2584 70.7978 64.124 70.7978V70.5129C63.4157 70.5129 62.8419 69.9388 62.8419 69.2308H62.557ZM64.124 67.6639C63.2584 67.6639 62.557 68.3653 62.557 69.2308H62.8419C62.8419 68.5228 63.4157 67.9488 64.124 67.9488V67.6639ZM65.6909 69.2308C65.6909 68.3653 64.9892 67.6639 64.124 67.6639V67.9488C64.8319 67.9488 65.406 68.5228 65.406 69.2308H65.6909ZM72.2436 69.2308C72.2436 69.9388 71.6696 70.5129 70.9616 70.5129V70.7978C71.8268 70.7978 72.5285 70.0964 72.5285 69.2308H72.2436ZM70.9616 67.9488C71.6696 67.9488 72.2436 68.5228 72.2436 69.2308H72.5285C72.5285 68.3653 71.8268 67.6639 70.9616 67.6639V67.9488ZM69.6795 69.2308C69.6795 68.5228 70.2533 67.9488 70.9616 67.9488V67.6639C70.096 67.6639 69.3946 68.3653 69.3946 69.2308H69.6795ZM70.9616 70.5129C70.2533 70.5129 69.6795 69.9388 69.6795 69.2308H69.3946C69.3946 70.0964 70.096 70.7978 70.9616 70.7978V70.5129Z" fill="#143B5A"/>
<path fill-rule="evenodd" clip-rule="evenodd" d="M0.284912 92.4502H75.641L72.0798 75.7835C68.5185 77.9202 66.9516 77.9202 63.6752 75.7835C61.7379 82.1653 61.3012 86.4197 61.1111 87.322H24.6439L49.8576 44.0171C50.3798 42.8775 51.8519 40.9402 53.5613 42.3077C55.2707 43.6752 62.5356 47.6259 65.9544 49.4302L58.4046 13.9601H53.0002V31H46.0002V28H50.0002V5L54.8433 4.13107L51.7094 0.284912L28.0627 3.70372V10.2564L30.6268 9.11682V13.9601H21.2251L0.284912 92.4502ZM46.7237 13.9601H37.037V32H29.4872V29.0598H34.0002V19V8L46.7237 5.55557V13.9601Z" fill="#143B5A" stroke="#143B5A"/>
</g>
<defs>
<clipPath id="clip0_25_28">
<rect width="100" height="92.5926" fill="white"/>
</clipPath>
</defs>
</svg>
